<mxfile host="Electron" agent="Mozilla/5.0 (Windows NT 10.0; Win64; x64) AppleWebKit/537.36 (KHTML, like Gecko) draw.io/24.7.17 Chrome/128.0.6613.36 Electron/32.0.1 Safari/537.36" version="24.7.17">
  <diagram name="第 1 页" id="mjZxpF_ILYV1mx3SKfiO">
    <mxGraphModel dx="1219" dy="722" grid="1" gridSize="10" guides="1" tooltips="1" connect="1" arrows="1" fold="1" page="1" pageScale="1" pageWidth="1169" pageHeight="827" math="0" shadow="0">
      <root>
        <mxCell id="0" />
        <mxCell id="1" parent="0" />
        <mxCell id="lhRJeY9ZUktUeu-Ad3Wc-1" value="" style="pointerEvents=1;shadow=0;dashed=0;html=1;strokeColor=#BD7000;labelPosition=center;verticalLabelPosition=bottom;verticalAlign=top;align=center;fillColor=#f0a30a;shape=mxgraph.mscae.intune.user_group;labelBackgroundColor=none;fontColor=#000000;strokeWidth=2;fontStyle=1" vertex="1" parent="1">
          <mxGeometry x="255" y="265" width="70" height="60" as="geometry" />
        </mxCell>
        <mxCell id="lhRJeY9ZUktUeu-Ad3Wc-2" value="" style="verticalLabelPosition=bottom;html=1;verticalAlign=top;align=center;strokeColor=#BD7000;fillColor=#f0a30a;shape=mxgraph.azure.user;labelBackgroundColor=none;fontColor=#000000;strokeWidth=2;fontStyle=1" vertex="1" parent="1">
          <mxGeometry x="885" y="270" width="47.5" height="50" as="geometry" />
        </mxCell>
        <mxCell id="lhRJeY9ZUktUeu-Ad3Wc-4" value="" style="html=1;shadow=0;dashed=0;align=center;verticalAlign=middle;shape=mxgraph.arrows2.arrow;dy=0.6;dx=40;notch=0;hachureGap=4;fontFamily=Architects Daughter;fontSource=https%3A%2F%2Ffonts.googleapis.com%2Fcss%3Ffamily%3DArchitects%2BDaughter;fillColor=#e51400;fontColor=#ffffff;strokeColor=#B20000;strokeWidth=2;fontStyle=1" vertex="1" parent="1">
          <mxGeometry x="549.5" y="272" width="100" height="70" as="geometry" />
        </mxCell>
        <mxCell id="lhRJeY9ZUktUeu-Ad3Wc-20" value="&lt;div&gt;&lt;font style=&quot;font-size: 16px;&quot;&gt;User Management&lt;/font&gt;&lt;/div&gt;" style="rounded=1;whiteSpace=wrap;html=1;fillColor=#d0cee2;strokeColor=#56517e;strokeWidth=2;fontStyle=1" vertex="1" parent="1">
          <mxGeometry x="325" y="140" width="100" height="50" as="geometry" />
        </mxCell>
        <mxCell id="lhRJeY9ZUktUeu-Ad3Wc-21" value="&lt;p class=&quot;md-end-block md-p md-focus&quot; style=&quot;box-sizing: border-box; line-height: inherit; orphans: 4; margin: 0.8em 0px; white-space-collapse: preserve; position: relative; color: rgb(51, 51, 51); font-family: &amp;quot;Open Sans&amp;quot;, &amp;quot;Clear Sans&amp;quot;, &amp;quot;Helvetica Neue&amp;quot;, Helvetica, Arial, sans-serif; font-size: 16px; text-align: start;&quot;&gt;&lt;span class=&quot;md-plain md-expand&quot; style=&quot;box-sizing: border-box;&quot;&gt;Article Management&lt;/span&gt;&lt;/p&gt;" style="rounded=1;whiteSpace=wrap;html=1;fillColor=#fad7ac;strokeColor=#b46504;strokeWidth=2;fontStyle=1" vertex="1" parent="1">
          <mxGeometry x="185" y="140" width="100" height="50" as="geometry" />
        </mxCell>
        <mxCell id="lhRJeY9ZUktUeu-Ad3Wc-22" value="&lt;p class=&quot;md-end-block md-p md-focus&quot; style=&quot;box-sizing: border-box; line-height: inherit; orphans: 4; margin: 0.8em 0px; position: relative; text-align: start;&quot;&gt;&lt;font color=&quot;#333333&quot; face=&quot;Open Sans, Clear Sans, Helvetica Neue, Helvetica, Arial, sans-serif&quot;&gt;&lt;span style=&quot;font-size: 16px; white-space-collapse: preserve;&quot;&gt;Community Interaction&lt;/span&gt;&lt;/font&gt;&lt;br&gt;&lt;/p&gt;" style="rounded=1;whiteSpace=wrap;html=1;fillColor=#d0cee2;strokeColor=#56517e;fontStyle=1" vertex="1" parent="1">
          <mxGeometry x="115" y="210" width="90" height="40" as="geometry" />
        </mxCell>
        <mxCell id="lhRJeY9ZUktUeu-Ad3Wc-23" value="&lt;p class=&quot;md-end-block md-p md-focus&quot; style=&quot;box-sizing: border-box; line-height: inherit; orphans: 4; margin: 0.8em 0px; white-space-collapse: preserve; position: relative; color: rgb(51, 51, 51); font-family: &amp;quot;Open Sans&amp;quot;, &amp;quot;Clear Sans&amp;quot;, &amp;quot;Helvetica Neue&amp;quot;, Helvetica, Arial, sans-serif; font-size: 16px; text-align: start;&quot;&gt;&lt;span class=&quot;md-plain md-expand&quot; style=&quot;box-sizing: border-box;&quot;&gt;Concurrency Control&lt;/span&gt;&lt;/p&gt;" style="rounded=1;whiteSpace=wrap;html=1;fillColor=#bac8d3;strokeColor=#23445d;fontStyle=1" vertex="1" parent="1">
          <mxGeometry x="85" y="352" width="100" height="48" as="geometry" />
        </mxCell>
        <mxCell id="lhRJeY9ZUktUeu-Ad3Wc-24" value="&lt;p class=&quot;md-end-block md-p md-focus&quot; style=&quot;box-sizing: border-box; line-height: inherit; orphans: 4; margin: 0.8em 0px; white-space-collapse: preserve; position: relative; color: rgb(51, 51, 51); font-family: &amp;quot;Open Sans&amp;quot;, &amp;quot;Clear Sans&amp;quot;, &amp;quot;Helvetica Neue&amp;quot;, Helvetica, Arial, sans-serif; font-size: 16px; text-align: start;&quot;&gt;&lt;span class=&quot;md-plain&quot; style=&quot;box-sizing: border-box;&quot;&gt;Security Requirements&lt;/span&gt;&lt;/p&gt;" style="rounded=1;whiteSpace=wrap;html=1;fillColor=#bac8d3;strokeColor=#23445d;strokeWidth=2;fontStyle=1" vertex="1" parent="1">
          <mxGeometry x="185" y="410" width="110" height="60" as="geometry" />
        </mxCell>
        <mxCell id="lhRJeY9ZUktUeu-Ad3Wc-25" value="&lt;p class=&quot;md-end-block md-p md-focus&quot; style=&quot;box-sizing: border-box; line-height: inherit; orphans: 4; margin: 0.8em 0px; white-space-collapse: preserve; position: relative; color: rgb(51, 51, 51); font-family: &amp;quot;Open Sans&amp;quot;, &amp;quot;Clear Sans&amp;quot;, &amp;quot;Helvetica Neue&amp;quot;, Helvetica, Arial, sans-serif; font-size: 16px; text-align: start;&quot;&gt;&lt;span class=&quot;md-plain&quot; style=&quot;box-sizing: border-box;&quot;&gt;Architecture and Database&lt;/span&gt;&lt;/p&gt;&lt;div&gt;&lt;span class=&quot;md-plain&quot; style=&quot;box-sizing: border-box;&quot;&gt;&lt;br&gt;&lt;/span&gt;&lt;/div&gt;" style="rounded=1;whiteSpace=wrap;html=1;fillColor=#d0cee2;strokeColor=#56517e;strokeWidth=2;fontStyle=1" vertex="1" parent="1">
          <mxGeometry x="315" y="410" width="110" height="50" as="geometry" />
        </mxCell>
        <mxCell id="lhRJeY9ZUktUeu-Ad3Wc-26" value="&lt;p class=&quot;md-end-block md-p md-focus&quot; style=&quot;box-sizing: border-box; line-height: inherit; orphans: 4; margin: 0.8em 0px; position: relative; text-align: start;&quot;&gt;&lt;font color=&quot;#333333&quot; face=&quot;Open Sans, Clear Sans, Helvetica Neue, Helvetica, Arial, sans-serif&quot;&gt;&lt;span style=&quot;font-size: 16px; white-space-collapse: preserve;&quot;&gt;Performance Optimization&lt;/span&gt;&lt;/font&gt;&lt;br&gt;&lt;/p&gt;" style="rounded=1;whiteSpace=wrap;html=1;fillColor=#fad7ac;strokeColor=#b46504;strokeWidth=2;fontStyle=1" vertex="1" parent="1">
          <mxGeometry x="395" y="230" width="100" height="50" as="geometry" />
        </mxCell>
        <mxCell id="lhRJeY9ZUktUeu-Ad3Wc-27" value="&lt;p class=&quot;md-end-block md-p md-focus&quot; style=&quot;box-sizing: border-box; line-height: inherit; orphans: 4; margin: 0.8em 0px; position: relative; text-align: start;&quot;&gt;&lt;font color=&quot;#333333&quot; face=&quot;Open Sans, Clear Sans, Helvetica Neue, Helvetica, Arial, sans-serif&quot;&gt;&lt;span style=&quot;font-size: 16px; white-space-collapse: preserve;&quot;&gt;Scalability&lt;/span&gt;&lt;/font&gt;&lt;br&gt;&lt;/p&gt;" style="rounded=1;whiteSpace=wrap;html=1;fillColor=#fad7ac;strokeColor=#b46504;strokeWidth=2;fontStyle=1" vertex="1" parent="1">
          <mxGeometry x="395" y="342" width="90" height="40" as="geometry" />
        </mxCell>
        <mxCell id="lhRJeY9ZUktUeu-Ad3Wc-28" value="&lt;p style=&quot;box-sizing: border-box; line-height: inherit; orphans: 4; margin: 0.8em 0px; position: relative; text-align: start;&quot; class=&quot;md-end-block md-p md-focus&quot;&gt;&lt;font face=&quot;Open Sans, Clear Sans, Helvetica Neue, Helvetica, Arial, sans-serif&quot; color=&quot;#333333&quot;&gt;&lt;span style=&quot;font-size: 16px; white-space-collapse: preserve;&quot;&gt;&lt;b&gt;Data Isolation&lt;/b&gt;&lt;/span&gt;&lt;/font&gt;&lt;br&gt;&lt;/p&gt;" style="rounded=1;whiteSpace=wrap;html=1;fillColor=#d0cee2;strokeColor=#56517e;" vertex="1" parent="1">
          <mxGeometry x="75" y="275" width="90" height="45" as="geometry" />
        </mxCell>
        <mxCell id="lhRJeY9ZUktUeu-Ad3Wc-29" value="&lt;p class=&quot;md-end-block md-p md-focus&quot; style=&quot;box-sizing: border-box; line-height: inherit; orphans: 4; margin: 0.8em 0px; position: relative; text-align: start;&quot;&gt;&lt;font color=&quot;#333333&quot; face=&quot;Open Sans, Clear Sans, Helvetica Neue, Helvetica, Arial, sans-serif&quot;&gt;&lt;span style=&quot;font-size: 16px; white-space-collapse: preserve;&quot;&gt;Article Management&lt;/span&gt;&lt;/font&gt;&lt;br&gt;&lt;/p&gt;" style="rounded=1;whiteSpace=wrap;html=1;fillColor=#fad7ac;strokeColor=#b46504;strokeWidth=2;fontStyle=1" vertex="1" parent="1">
          <mxGeometry x="705" y="240" width="100" height="50" as="geometry" />
        </mxCell>
        <mxCell id="lhRJeY9ZUktUeu-Ad3Wc-30" value="&lt;p class=&quot;md-end-block md-p md-focus&quot; style=&quot;box-sizing: border-box; line-height: inherit; orphans: 4; margin: 0.8em 0px; white-space-collapse: preserve; position: relative; color: rgb(51, 51, 51); font-family: &amp;quot;Open Sans&amp;quot;, &amp;quot;Clear Sans&amp;quot;, &amp;quot;Helvetica Neue&amp;quot;, Helvetica, Arial, sans-serif; font-size: 16px; text-align: start;&quot;&gt;&lt;span class=&quot;md-plain md-expand&quot; style=&quot;box-sizing: border-box;&quot;&gt;User Authentication&lt;/span&gt;&lt;/p&gt;" style="rounded=1;whiteSpace=wrap;html=1;fillColor=#b0e3e6;strokeColor=#0e8088;strokeWidth=2;fontStyle=1" vertex="1" parent="1">
          <mxGeometry x="705" y="325" width="110" height="55" as="geometry" />
        </mxCell>
        <mxCell id="lhRJeY9ZUktUeu-Ad3Wc-31" value="&lt;p class=&quot;md-end-block md-p md-focus&quot; style=&quot;box-sizing: border-box; line-height: inherit; orphans: 4; margin: 0.8em 0px; position: relative; text-align: start;&quot;&gt;&lt;font color=&quot;#333333&quot; face=&quot;Open Sans, Clear Sans, Helvetica Neue, Helvetica, Arial, sans-serif&quot;&gt;&lt;span style=&quot;font-size: 16px; white-space-collapse: preserve;&quot;&gt;Performance Optimization&lt;/span&gt;&lt;/font&gt;&lt;br&gt;&lt;/p&gt;" style="rounded=1;whiteSpace=wrap;html=1;fillColor=#fad7ac;strokeColor=#b46504;strokeWidth=2;fontStyle=1" vertex="1" parent="1">
          <mxGeometry x="775" y="150" width="100" height="50" as="geometry" />
        </mxCell>
        <mxCell id="lhRJeY9ZUktUeu-Ad3Wc-32" value="&lt;p class=&quot;md-end-block md-p md-focus&quot; style=&quot;box-sizing: border-box; line-height: inherit; orphans: 4; margin: 0.8em 0px; position: relative; text-align: start;&quot;&gt;&lt;font color=&quot;#333333&quot; face=&quot;Open Sans, Clear Sans, Helvetica Neue, Helvetica, Arial, sans-serif&quot;&gt;&lt;span style=&quot;font-size: 16px; white-space-collapse: preserve;&quot;&gt;Display and Experience&lt;/span&gt;&lt;/font&gt;&lt;br&gt;&lt;/p&gt;" style="rounded=1;whiteSpace=wrap;html=1;fillColor=#b0e3e6;strokeColor=#0e8088;strokeWidth=2;fontStyle=1" vertex="1" parent="1">
          <mxGeometry x="785" y="410" width="100" height="50" as="geometry" />
        </mxCell>
        <mxCell id="lhRJeY9ZUktUeu-Ad3Wc-33" value="&lt;p class=&quot;md-end-block md-p md-focus&quot; style=&quot;box-sizing: border-box; line-height: inherit; orphans: 4; margin: 0.8em 0px; position: relative; text-align: start;&quot;&gt;&lt;span style=&quot;color: rgb(51, 51, 51); font-family: &amp;quot;Open Sans&amp;quot;, &amp;quot;Clear Sans&amp;quot;, &amp;quot;Helvetica Neue&amp;quot;, Helvetica, Arial, sans-serif; font-size: 16px; white-space-collapse: preserve;&quot;&gt;Scalability&lt;/span&gt;&lt;/p&gt;" style="rounded=1;whiteSpace=wrap;html=1;fillColor=#fad7ac;strokeColor=#b46504;strokeWidth=2;fontStyle=1" vertex="1" parent="1">
          <mxGeometry x="935" y="150" width="90" height="40" as="geometry" />
        </mxCell>
        <mxCell id="lhRJeY9ZUktUeu-Ad3Wc-34" value="&lt;p class=&quot;md-end-block md-p md-focus&quot; style=&quot;box-sizing: border-box; line-height: inherit; orphans: 4; margin: 0.8em 0px; position: relative; text-align: start;&quot;&gt;&lt;font color=&quot;#333333&quot; face=&quot;Open Sans, Clear Sans, Helvetica Neue, Helvetica, Arial, sans-serif&quot;&gt;&lt;span style=&quot;font-size: 16px; white-space-collapse: preserve;&quot;&gt;Data Consistency&lt;/span&gt;&lt;/font&gt;&lt;br&gt;&lt;/p&gt;" style="rounded=1;whiteSpace=wrap;html=1;fillColor=#bac8d3;strokeColor=#23445d;strokeWidth=2;fontStyle=1" vertex="1" parent="1">
          <mxGeometry x="935" y="410" width="100" height="50" as="geometry" />
        </mxCell>
        <mxCell id="lhRJeY9ZUktUeu-Ad3Wc-35" value="&lt;p class=&quot;md-end-block md-p md-focus&quot; style=&quot;box-sizing: border-box; line-height: inherit; orphans: 4; margin: 0.8em 0px; position: relative; text-align: start;&quot;&gt;&lt;font color=&quot;#333333&quot; face=&quot;Open Sans, Clear Sans, Helvetica Neue, Helvetica, Arial, sans-serif&quot;&gt;&lt;span style=&quot;font-size: 16px; white-space-collapse: preserve;&quot;&gt;Architecture and Database&lt;/span&gt;&lt;/font&gt;&lt;span style=&quot;color: rgb(51, 51, 51); font-family: &amp;quot;Open Sans&amp;quot;, &amp;quot;Clear Sans&amp;quot;, &amp;quot;Helvetica Neue&amp;quot;, Helvetica, Arial, sans-serif; font-size: 16px; white-space-collapse: preserve;&quot;&gt;&lt;br&gt;&lt;/span&gt;&lt;/p&gt;" style="rounded=1;whiteSpace=wrap;html=1;fillColor=#b0e3e6;strokeColor=#0e8088;strokeWidth=2;fontStyle=1" vertex="1" parent="1">
          <mxGeometry x="995" y="240" width="100" height="50" as="geometry" />
        </mxCell>
        <mxCell id="lhRJeY9ZUktUeu-Ad3Wc-36" value="&lt;p class=&quot;md-end-block md-p md-focus&quot; style=&quot;box-sizing: border-box; line-height: inherit; orphans: 4; margin: 0.8em 0px; position: relative; text-align: start;&quot;&gt;&lt;span style=&quot;color: rgb(51, 51, 51); font-family: &amp;quot;Open Sans&amp;quot;, &amp;quot;Clear Sans&amp;quot;, &amp;quot;Helvetica Neue&amp;quot;, Helvetica, Arial, sans-serif; font-size: 16px; white-space-collapse: preserve;&quot;&gt;Basic Security&lt;/span&gt;&lt;/p&gt;" style="rounded=1;whiteSpace=wrap;html=1;fillColor=#b0e3e6;strokeColor=#0e8088;strokeWidth=2;fontStyle=1" vertex="1" parent="1">
          <mxGeometry x="995" y="340" width="90" height="40" as="geometry" />
        </mxCell>
        <mxCell id="lhRJeY9ZUktUeu-Ad3Wc-40" value="&lt;span style=&quot;font-style: normal; margin: 0px; padding: 0px; border: 0px; font-size: 15px; vertical-align: baseline; color: rgb(26, 32, 41); font-family: -apple-system, BlinkMacSystemFont, &amp;quot;Segoe UI&amp;quot;, &amp;quot;Noto Sans&amp;quot;, Helvetica, Arial, sans-serif, &amp;quot;Apple Color Emoji&amp;quot;, &amp;quot;Segoe UI Emoji&amp;quot;; font-variant-ligatures: normal; font-variant-caps: normal; letter-spacing: normal; orphans: 2; text-align: left; text-indent: 0px; text-transform: none; widows: 2; word-spacing: 0px; -webkit-text-stroke-width: 0px; white-space: normal; background-color: rgb(255, 255, 255); text-decoration-thickness: initial; text-decoration-style: initial; text-decoration-color: initial;&quot;&gt;&lt;b&gt;Multi-User Blog Design Requirements&lt;/b&gt;&lt;/span&gt;" style="text;whiteSpace=wrap;html=1;" vertex="1" parent="1">
          <mxGeometry x="145" y="550" width="290" height="40" as="geometry" />
        </mxCell>
        <mxCell id="lhRJeY9ZUktUeu-Ad3Wc-41" value="&lt;p style=&quot;margin: 8px 0px 0px; padding: 0px; border: 0px; font-size: 15px; vertical-align: baseline; line-height: 27px; color: rgb(26, 32, 41); font-family: -apple-system, BlinkMacSystemFont, &amp;quot;Segoe UI&amp;quot;, &amp;quot;Noto Sans&amp;quot;, Helvetica, Arial, sans-serif, &amp;quot;Apple Color Emoji&amp;quot;, &amp;quot;Segoe UI Emoji&amp;quot;; font-style: normal; font-variant-ligatures: normal; font-variant-caps: normal; letter-spacing: normal; orphans: 2; text-align: left; text-indent: 0px; text-transform: none; widows: 2; word-spacing: 0px; -webkit-text-stroke-width: 0px; white-space: normal; background-color: rgb(255, 255, 255); text-decoration-thickness: initial; text-decoration-style: initial; text-decoration-color: initial;&quot;&gt;&lt;span style=&quot;font-style: normal; margin: 0px; padding: 0px; border: 0px; font-size: 15px; vertical-align: baseline;&quot;&gt;&lt;b&gt;Single-User&amp;nbsp;Blog Design Requirements&lt;/b&gt;&lt;/span&gt;&lt;/p&gt;" style="text;whiteSpace=wrap;html=1;" vertex="1" parent="1">
          <mxGeometry x="775" y="535" width="300" height="70" as="geometry" />
        </mxCell>
      </root>
    </mxGraphModel>
  </diagram>
</mxfile>
